<svg xmlns="http://www.w3.org/2000/svg" width="19" height="20" fill="none" viewBox="0 0 19 20">
  <path fill="#6E718F" d="M3.525 8.85 9.025 0l5.5 8.85h-11ZM14.65 20c-1.233 0-2.267-.417-3.1-1.25-.833-.833-1.25-1.867-1.25-3.1s.417-2.267 1.25-3.1c.833-.833 1.867-1.25 3.1-1.25s2.267.417 3.1 1.25c.833.833 1.25 1.867 1.25 3.1s-.417 2.267-1.25 3.1c-.833.833-1.867 1.25-3.1 1.25ZM0 19.375v-7.6h7.6v7.6H0Zm14.652-.875c.799 0 1.473-.276 2.023-.827.55-.551.825-1.226.825-2.025 0-.799-.276-1.473-.827-2.023-.551-.55-1.226-.825-2.025-.825-.799 0-1.473.276-2.023.827-.55.551-.825 1.226-.825 2.025 0 .799.276 1.473.827 2.023.551.55 1.226.825 2.025.825ZM1.5 17.875h4.6v-4.6H1.5v4.6ZM6.225 7.35h5.6l-2.8-4.525-2.8 4.525Z"/>
</svg>
